<svg width="701" height="735" viewBox="0 0 701 735" fill="none" xmlns="http://www.w3.org/2000/svg">
<g clip-path="url(#clip0_74_150)">
<path d="M525.96 113.85C528.213 114.779 528.213 114.779 530.501 116.09C531.777 116.812 531.777 116.812 533.08 117.548C533.978 118.071 534.876 118.595 535.801 119.134C537.204 119.937 537.204 119.937 538.635 120.756C546.507 125.283 554.284 129.949 561.973 134.778C562.749 135.262 563.524 135.746 564.323 136.245C566.823 137.809 569.319 139.379 571.814 140.952C572.982 141.684 572.982 141.684 574.173 142.431C578.15 144.955 582.018 147.417 585.424 150.683C586.6 156.271 584.401 160.005 581.743 164.892C580.289 167.633 579.101 170.432 577.886 173.286C577.384 174.327 576.874 175.365 576.358 176.399C575.974 177.181 575.974 177.181 575.581 177.978C575.057 179.04 574.525 180.097 573.985 181.15C572.181 184.863 571.208 187.622 572.023 191.703C573.995 194.359 576.345 196.533 578.776 198.766C580.044 199.966 581.31 201.169 582.574 202.373C583.196 202.963 583.818 203.553 584.459 204.161C587.184 206.842 589.66 209.711 592.124 212.631C592.502 213.07 592.88 213.51 593.269 213.963C597.975 219.438 602.349 225.046 606.362 231.048C611.092 230.174 615.533 228.87 620.05 227.225C620.601 227.024 621.153 226.824 621.721 226.617C624.022 225.775 626.32 224.926 628.615 224.071C644.632 218.121 644.632 218.121 649.499 220.244C652.089 222.222 653.316 224.444 654.728 227.304C655.149 228.123 655.149 228.123 655.579 228.959C656.494 230.748 657.391 232.546 658.288 234.344C658.918 235.59 659.549 236.835 660.181 238.081C682.445 282.186 682.445 282.186 680.9 289.647C677.151 293.976 671.816 296.758 666.924 299.588C665.44 300.465 663.957 301.343 662.475 302.224C661.76 302.647 661.046 303.071 660.309 303.508C657.6 305.126 654.924 306.778 652.268 308.482C651.496 308.974 650.724 309.467 649.929 309.974C647.974 311.636 647.757 312.278 647.4 314.761C647.67 316.459 647.67 316.459 648.27 318.204C648.478 318.891 648.686 319.578 648.901 320.286C649.246 321.41 649.246 321.41 649.598 322.557C654.175 338.29 655.998 354.661 658.288 370.849C667.207 372.536 676.127 373.895 685.144 374.958C696.352 376.329 696.352 376.329 699.462 379.243C701.548 382.616 701.455 385.191 701.387 389.079C701.387 389.805 701.387 390.531 701.387 391.279C701.381 393.661 701.349 396.041 701.315 398.422C701.301 400.071 701.288 401.72 701.275 403.37C701.17 413.713 700.923 424.056 700.464 434.39C700.403 435.761 700.347 437.132 700.295 438.503C700.22 440.41 700.123 442.315 700.019 444.222C699.967 445.294 699.914 446.366 699.86 447.47C699.235 450.871 698.195 452.762 695.976 455.399C689.151 458.853 678.223 457.67 670.667 457.998C668.716 458.084 666.765 458.18 664.814 458.276C663.924 458.31 663.924 458.31 663.016 458.345C659.748 458.509 656.964 458.775 654.1 460.422C653.258 461.866 653.258 461.866 653.011 463.636C652.87 464.308 652.729 464.98 652.584 465.672C652.445 466.408 652.306 467.145 652.163 467.903C651.823 469.498 651.477 471.092 651.126 472.684C650.843 473.967 650.843 473.967 650.555 475.276C649.403 480.16 647.987 484.964 646.562 489.773C646.294 490.698 646.026 491.622 645.75 492.574C644.128 498.025 642.208 503.177 639.823 508.342C638.92 510.951 638.782 512.929 639.025 515.672C640.421 517.589 640.421 517.589 642.479 519.178C643.621 520.137 643.621 520.137 644.786 521.117C645.648 521.806 646.511 522.496 647.4 523.206C647.87 523.584 648.341 523.961 648.826 524.35C652.231 527.075 655.671 529.752 659.125 532.415C660.591 533.548 662.057 534.681 663.522 535.816C664.384 536.478 664.384 536.478 665.262 537.153C667.642 539.059 668.283 539.613 668.792 542.741C668.639 548.191 665.419 552.639 662.737 557.215C662.16 558.22 661.584 559.225 661.01 560.231C659.556 562.769 658.084 565.296 656.607 567.82C655.359 569.962 654.131 572.114 652.899 574.265C648.505 581.882 643.905 589.33 638.972 596.612C638.523 597.279 638.074 597.946 637.611 598.633C637.187 599.247 636.763 599.861 636.326 600.494C635.772 601.298 635.772 601.298 635.207 602.118C632.928 604.861 631.53 605.982 627.902 606.396C624.418 606.045 621.637 605.029 618.499 603.577C617.634 603.193 617.634 603.193 616.752 602.801C614.924 601.986 613.103 601.157 611.282 600.327C610.053 599.775 608.824 599.225 607.595 598.675C605.861 597.9 604.127 597.123 602.397 596.339C596.258 593.206 596.258 593.206 589.611 592.688C587.988 594.141 587.988 594.141 586.628 596.193C580.059 604.9 572.33 612.547 564.643 620.261C563.973 620.935 563.302 621.609 562.612 622.303C558.899 626.004 555.117 629.519 551.086 632.87C551.31 633.716 551.535 634.562 551.766 635.434C551.892 635.91 552.019 636.386 552.149 636.876C553.021 639.52 554.155 642.044 555.273 644.59C557.925 650.732 560.566 656.871 563.01 663.098C563.638 664.716 563.638 664.716 564.486 666.355C564.778 669.454 564.939 671.475 563.288 674.171C560.292 677.275 556.872 679.398 553.232 681.685C552.474 682.168 551.717 682.651 550.936 683.149C548.757 684.534 546.572 685.91 544.385 687.284C543.436 687.888 542.488 688.493 541.539 689.099C534.915 693.261 528.093 697.074 521.266 700.894C520.48 701.334 519.694 701.774 518.884 702.228C517.724 702.877 517.724 702.877 516.541 703.54C513.561 705.251 510.646 707.061 507.742 708.898C505.168 710.249 502.957 710.755 500.063 710.517C496.285 709.148 494.555 705.585 492.46 702.352C491.099 700.404 489.71 698.475 488.324 696.544C487.971 696.046 487.618 695.547 487.254 695.033C484.132 690.638 480.816 686.419 477.384 682.261C473.835 682.755 470.735 683.592 467.4 684.893C466.007 685.433 466.007 685.433 464.586 685.984C463.627 686.361 462.669 686.738 461.681 687.127C460.735 687.494 459.789 687.862 458.815 688.24C453.559 690.282 453.559 690.282 448.337 692.407C443.406 694.458 438.49 695.848 433.31 697.12C425.614 699.116 418.968 701.883 412.009 705.67C402.059 710.979 391.619 715.152 381.07 719.095C380.54 719.295 380.01 719.495 379.464 719.701C378.373 720.112 377.28 720.521 376.186 720.928C374.872 721.419 373.56 721.916 372.249 722.418C366.665 724.517 361.061 726.12 355.264 727.518C353.935 727.842 353.935 727.842 352.578 728.173C350.073 728.781 347.565 729.38 345.057 729.977C343.99 730.238 342.924 730.5 341.825 730.769C326.75 734.26 311.564 735.393 296.13 735.236C293.527 735.209 290.925 735.201 288.322 735.196C221.252 734.942 155.71 707.023 105.528 663.007C104.934 662.497 104.34 661.986 103.728 661.46C102.08 660.038 100.452 658.596 98.8276 657.147C98.1118 656.519 97.396 655.891 96.6585 655.244C86.9396 646.559 77.8084 637.084 69.7174 626.86C68.3169 625.099 66.8967 623.379 65.4382 621.667C48.2813 601.367 35.3602 578.229 24.2888 554.18C23.9286 553.411 23.5684 552.642 23.1973 551.85C20.9147 546.931 18.9182 541.994 17.1699 536.862C16.9206 536.135 16.6712 535.409 16.4144 534.66C15.9142 533.194 15.417 531.727 14.9227 530.259C14.5028 529.013 14.0792 527.769 13.6493 526.526C10.0602 516.142 7.85027 505.452 5.56326 494.72C5.13101 492.719 4.68138 490.725 4.20802 488.734C0.0116758 470.727 -0.155958 451.805 -0.154373 433.401C-0.156216 431.014 -0.171536 428.627 -0.187293 426.24C-0.216057 417.103 0.275887 408.344 1.67585 399.311C1.82409 398.274 1.97234 397.237 2.12507 396.168C6.72055 364.41 15.2557 334.104 30.1514 305.552C30.4905 304.9 30.8296 304.248 31.179 303.575C39.0432 288.561 48.1179 274.637 59.4644 262.022C59.9047 261.522 60.3451 261.023 60.7988 260.508C62.16 258.964 63.5318 257.431 64.9082 255.9C65.5423 255.184 65.5423 255.184 66.1892 254.454C67.246 253.299 68.3756 252.212 69.5146 251.139C70.3437 251.139 71.1728 251.139 72.0271 251.139C71.66 251.672 71.293 252.205 70.9148 252.754C55.9059 275.745 47.608 302.584 41.0391 328.992C40.8426 329.7 40.6461 330.408 40.4436 331.137C26.5577 382.083 31.5419 439.599 46.0641 489.721C46.2273 490.292 46.3905 490.863 46.5586 491.452C48.0258 496.565 49.6722 501.416 51.9398 506.228C52.8693 508.381 53.5426 510.553 54.2299 512.794C56.1598 518.7 58.9123 524.094 61.779 529.583C62.9122 531.766 64.0218 533.96 65.1307 536.156C70.5106 546.733 76.3045 556.88 82.9148 566.737C83.5366 567.666 83.5366 567.666 84.1711 568.614C89.6012 576.658 95.4296 584.196 101.896 591.433C102.881 592.538 103.852 593.655 104.821 594.774C113.709 604.922 123.317 614.579 134.003 622.825C134.954 623.608 134.954 623.608 135.924 624.407C152.863 638.361 172.357 650.344 192.629 658.821C193.799 659.36 194.968 659.9 196.136 660.443C199.186 661.807 202.27 662.91 205.444 663.952C206.34 664.247 207.237 664.542 208.16 664.847C208.839 665.068 209.518 665.29 210.217 665.518C210.21 664.884 210.202 664.25 210.195 663.597C210.127 657.541 210.076 651.485 210.043 645.429C210.026 642.318 210.003 639.207 209.964 636.095C209.611 606.743 214.529 580.759 233.667 557.529C234.303 556.755 234.939 555.981 235.594 555.184C244.054 545.4 254.141 538.425 265.493 532.415C266.081 532.082 266.67 531.75 267.276 531.408C281.795 523.509 298.392 521.892 314.592 522.055C315.284 522.059 315.976 522.063 316.688 522.067C348.01 522.273 373.676 529.948 396.721 551.878C407.499 563 414.713 575.519 419.596 590.177C419.908 591.053 420.22 591.929 420.541 592.832C420.834 593.665 421.126 594.498 421.428 595.356C421.682 596.076 421.935 596.796 422.197 597.537C424.43 605.543 424.851 613.216 424.784 621.5C424.781 622.632 424.779 623.764 424.777 624.895C424.771 627.842 424.755 630.788 424.736 633.735C424.719 636.754 424.711 639.774 424.703 642.793C424.685 648.694 424.656 654.595 424.621 660.496C457.411 647.431 488.562 632.95 515.91 610.268C516.345 609.908 516.781 609.549 517.229 609.178C522.109 605.139 526.93 601.099 531.329 596.53C532.755 595.105 534.257 593.826 535.801 592.531C551.514 578.951 564.224 560.68 575.374 543.297C575.919 542.464 576.464 541.631 577.026 540.773C582.227 532.617 586.576 524.002 590.979 515.397C591.973 513.455 592.976 511.517 593.982 509.58C596.623 504.456 598.832 499.424 600.499 493.907C601.604 490.895 602.729 487.903 603.939 484.932C606.749 477.916 608.821 470.833 610.654 463.508C610.871 462.651 610.871 462.651 611.093 461.776C616.584 440.108 619.92 418.131 619.917 395.748C619.919 393.982 619.934 392.216 619.95 390.449C619.978 383.621 619.501 377.112 618.496 370.349C618.042 367.19 617.781 364.048 617.557 360.866C617.005 353.152 615.9 345.667 614.318 338.096C614.139 337.238 613.96 336.379 613.776 335.495C612.928 331.289 612.928 331.289 611.369 327.324C610.409 325.355 610.129 323.629 609.81 321.464C608.915 316.215 607.353 311.314 605.629 306.285C605.345 305.431 605.061 304.578 604.768 303.698C603.24 299.174 601.561 294.796 599.568 290.456C598.565 288.237 597.726 285.968 596.887 283.682C590.438 266.881 581.61 250.742 571.186 236.071C570.518 235.112 569.851 234.152 569.184 233.193C564.811 226.945 560.204 220.966 555.273 215.142C554.693 214.449 554.693 214.449 554.102 213.742C546.712 204.914 539.009 196.581 530.148 189.191C529.268 188.452 529.268 188.452 528.371 187.697C519.633 180.524 510.312 173.987 500.625 168.159C500.117 167.852 499.608 167.546 499.084 167.23C496.391 165.644 493.721 164.311 490.785 163.24C491.279 158.818 492.731 155.288 494.606 151.311C494.865 150.725 495.125 150.139 495.392 149.536C497.454 145.126 500.127 141.618 503.224 137.879C507.108 132.989 510.371 127.639 513.765 122.404C514.332 121.541 514.898 120.678 515.481 119.788C515.987 119.008 516.493 118.229 517.014 117.425C519.628 113.897 521.75 113.459 525.96 113.85Z" fill="#20665C"/>
<path d="M328.275 0.195365C330.356 0.978236 330.881 1.6999 332.058 3.56105C332.424 4.13096 332.79 4.70086 333.167 5.28804C333.55 5.9084 333.932 6.52875 334.325 7.1679C334.73 7.812 335.134 8.45609 335.55 9.11971C336.779 11.0941 337.989 13.079 339.193 15.0683C339.532 15.621 339.871 16.1736 340.22 16.743C348.129 29.7511 354.416 43.922 358.456 58.5991C358.883 59.8927 359.319 61.1835 359.765 62.4708C368.915 89.7607 369.562 119.691 361.806 147.335C361.389 148.877 361.389 148.877 360.962 150.451C360.166 153.332 359.327 156.195 358.456 159.055C358.238 159.777 358.02 160.499 357.795 161.242C353.947 172.799 347.817 184.241 340.868 194.214C340.567 194.655 340.265 195.097 339.954 195.552C334.829 203.035 329.237 209.983 323.281 216.817C308.206 232.294 308.206 232.294 302.044 251.756C302.043 252.474 302.041 253.192 302.039 253.932C302.037 256.298 302.052 258.664 302.068 261.031C302.071 262.687 302.072 264.343 302.073 265.999C302.077 269.47 302.089 272.941 302.107 276.412C302.131 280.835 302.14 285.257 302.144 289.68C302.148 293.925 302.16 298.171 302.173 302.416C302.174 303.214 302.176 304.012 302.177 304.833C302.199 313.485 302.318 322.05 303.18 330.666C304.27 328.839 305.35 327.008 306.426 325.173C306.731 324.663 307.037 324.153 307.351 323.627C310.491 318.236 311.681 312.773 312.759 306.651C317.609 280.409 329.066 257.066 347.569 237.745C348.347 236.902 348.347 236.902 349.142 236.041C365.714 218.648 389.097 207.71 412.057 201.748C412.865 201.533 413.674 201.318 414.506 201.097C444.464 193.507 493.864 191.864 521.772 207.608C521.772 210.12 521.772 210.12 520.571 211.382C520.017 211.829 519.463 212.275 518.893 212.736C505.213 224.238 495.18 238.942 485.811 254.017C466.482 285.021 442.502 310.03 408.707 324.806C408.017 325.123 407.327 325.439 406.617 325.764C387.796 333.948 366.331 335.543 346.115 336.641C337.767 337.17 330.351 338.951 322.443 341.549C321.89 341.549 321.338 341.549 320.768 341.549C330.911 313.856 356.312 286.325 379.394 268.719C380.192 268.074 380.99 267.43 381.812 266.766C400.443 251.929 422.128 240.249 444.72 232.722C404.003 236.929 364.866 264.752 339.54 295.602C319.881 320.489 307.5 347.851 303.18 379.22C301.437 379.784 299.692 380.34 297.946 380.894C296.974 381.205 296.003 381.516 295.001 381.836C292.293 382.568 292.293 382.568 288.943 382.568C288.769 381.624 288.595 380.68 288.416 379.707C282.869 350.845 269.775 324.728 252.092 301.367C251.563 300.659 251.563 300.659 251.024 299.937C244.932 291.811 238.222 284.376 231.154 277.09C230.617 276.535 230.081 275.98 229.528 275.409C223.669 269.378 217.867 263.628 211.054 258.673C210.289 258.062 209.525 257.452 208.737 256.822C201.531 251.085 193.912 246.162 186.057 241.359C184.524 240.422 182.997 239.474 181.472 238.523C174.872 234.514 167.915 231.504 160.803 228.536C161.554 228.964 162.306 229.391 163.08 229.831C170.862 234.334 178.056 239.354 185.153 244.867C186.685 246.054 188.228 247.225 189.776 248.392C200.136 256.276 209.37 265.308 218.591 274.474C219.172 275.051 219.754 275.628 220.352 276.222C224.122 280.003 227.692 283.909 231.154 287.973C231.61 288.506 232.066 289.04 232.535 289.59C247.583 307.341 264.117 327.862 272.192 349.92C271.916 350.749 271.639 351.578 271.355 352.432C270.714 352.168 270.074 351.905 269.415 351.634C259.138 347.53 248.979 345.013 238.063 343.328C216.264 339.923 195.306 331.6 178.391 317.272C177.958 316.906 177.525 316.54 177.079 316.163C156.989 298.958 145.819 275.896 135.154 252.185C125.498 230.724 115.336 210.321 96.5889 195.277C96.2218 194.926 95.8548 194.575 95.4766 194.214C95.4766 193.662 95.4766 193.109 95.4766 192.54C101.312 191.853 107.06 191.569 112.934 191.562C114.201 191.558 114.201 191.558 115.493 191.554C117.272 191.549 119.052 191.547 120.831 191.548C123.503 191.546 126.174 191.531 128.846 191.515C139.066 191.486 149.009 191.933 159.128 193.377C160.091 193.512 161.055 193.647 162.047 193.786C193.052 198.437 222.823 209.625 245.392 231.885C246.091 232.514 246.791 233.143 247.512 233.791C258.56 244.013 265.493 257.571 271.355 271.23C271.879 272.418 271.879 272.418 272.415 273.63C276.522 283.829 278.568 295.05 279.697 305.938C279.763 306.556 279.828 307.175 279.895 307.812C280.268 311.394 280.598 314.976 280.862 318.568C281.521 324.337 282.666 328.843 285.246 334.022C285.52 334.59 285.795 335.158 286.078 335.743C286.746 337.124 287.424 338.5 288.105 339.875C288.396 319.148 288.663 298.422 288.897 277.695C288.925 275.223 288.954 272.751 288.984 270.278C289.05 264.842 289.107 259.407 289.137 253.971C289.147 252.483 289.161 250.996 289.18 249.508C289.302 239.522 288.466 231.66 283.299 222.928C281.819 220.23 280.775 217.412 279.723 214.524C278.84 212.512 277.7 211.031 276.38 209.282C275.811 208.047 275.289 206.788 274.809 205.515C273.626 202.41 272.374 199.344 271.07 196.287C268.812 190.885 266.83 185.41 264.916 179.878C264.59 178.956 264.263 178.033 263.927 177.082C262.046 171.665 260.611 166.374 259.629 160.729C259.394 159.591 259.156 158.453 258.916 157.315C256.51 144.85 256.728 132.354 257.117 119.71C257.15 118.482 257.15 118.482 257.184 117.229C257.858 98.2675 264.271 79.1811 273.187 62.5231C273.506 61.9245 273.826 61.3258 274.155 60.7091C281.286 47.6036 290.269 35.5818 300.426 24.6757C302.046 22.9233 303.587 21.1368 305.117 19.3063C322.369 -0.50625 322.369 -0.506249 328.275 0.195365Z" fill="#1DC92B"/>
<path d="M339.193 391.777C339.973 392.028 340.752 392.279 341.555 392.539C355.876 397.721 367.443 408.509 374.369 421.913C380.836 436.11 383.436 453.427 378.504 468.583C377.733 470.626 376.915 472.651 376.044 474.652C375.628 475.663 375.213 476.673 374.784 477.713C371.367 485.286 366.829 490.69 360.969 496.418C360.295 497.108 359.621 497.799 358.927 498.511C346.804 510.31 330.612 514.248 314.171 514.261C299.534 514.047 286.355 507.807 275.542 498.092C275.03 497.658 274.519 497.225 273.991 496.778C263.533 487.278 256.347 471.858 255.244 457.928C254.394 438.333 257.833 422.588 271.354 407.682C278.997 399.931 287.925 394.574 298.155 390.939C298.898 390.671 299.64 390.402 300.406 390.125C313.028 386.272 326.839 387.731 339.193 391.777Z" fill="#20665C"/>
<path d="M165.08 521.158C167.695 521.165 170.309 521.141 172.924 521.115C185.431 521.069 197.182 522.032 208.332 528.281C208.916 528.599 209.5 528.916 210.102 529.243C217.009 533.169 223.212 538.452 227.804 544.971C226.523 547.896 224.767 550.003 222.674 552.401C218.316 557.646 215.088 563.244 211.891 569.248C211.505 569.953 211.118 570.657 210.72 571.383C202.485 586.981 198.554 603.846 198.226 621.389C198.2 622.571 198.2 622.571 198.173 623.778C198.119 626.268 198.069 628.758 198.02 631.248C197.984 632.948 197.947 634.648 197.91 636.348C197.821 640.49 197.736 644.633 197.653 648.775C194.232 648.323 191.543 647.6 188.483 646.012C187.326 645.414 187.326 645.414 186.145 644.803C185.331 644.37 184.516 643.937 183.677 643.491C182.83 643.044 181.982 642.597 181.108 642.136C169.622 635.995 158.58 629.08 148.24 621.15C147.806 620.824 147.372 620.498 146.925 620.162C133.842 610.323 121.125 598.904 110.585 586.344C109.11 584.594 107.599 582.893 106.07 581.19C105.05 580.018 104.032 578.845 103.014 577.672C102.259 576.848 102.259 576.848 101.488 576.007C99.0002 573.079 97.6038 571.076 97.9073 567.149C98.6406 563.398 100.033 560.11 101.81 556.743C102.108 556.166 102.406 555.588 102.713 554.993C105.34 550.052 108.447 545.756 112.227 541.623C112.669 541.113 113.112 540.604 113.568 540.079C127.514 524.973 145.368 521.077 165.08 521.158Z" fill="#FAB23D"/>
<path d="M462.674 521.25C465.344 521.27 468.013 521.267 470.683 521.262C472.404 521.267 474.125 521.273 475.846 521.28C477.025 521.279 477.025 521.279 478.228 521.278C494.868 521.453 509.801 528.564 521.772 539.949C529.272 548.3 537.187 559.337 537.685 570.922C537.353 574.494 536.308 576.032 533.706 578.457C533.141 578.992 532.575 579.527 531.992 580.078C531.383 580.648 530.774 581.218 530.147 581.805C527.868 584.056 525.623 586.336 523.398 588.639C517.295 594.916 511.013 600.591 503.988 605.816C502.514 606.915 501.055 608.032 499.597 609.152C483.541 621.358 459.362 639.579 438.858 642.078C438.858 642.631 438.858 643.183 438.858 643.753C438.305 643.753 437.752 643.753 437.183 643.753C437.171 642.724 437.158 641.695 437.146 640.634C437.097 636.762 437.032 632.889 436.963 629.017C436.935 627.351 436.912 625.685 436.893 624.02C436.779 614.375 436.425 605.382 433.833 596.036C433.667 595.398 433.501 594.76 433.33 594.102C428.483 576.203 420.176 559.84 407.032 546.646C410.418 536.769 421.332 531.002 430.044 526.263C431.842 525.404 433.633 524.718 435.508 524.043C436.122 523.821 436.736 523.599 437.368 523.37C445.668 520.864 454.08 521.182 462.674 521.25Z" fill="#47A5DE"/>
<path d="M465.031 424.163C465.857 424.15 466.683 424.136 467.534 424.123C479.368 424.115 489.347 428.49 497.746 436.773C501.77 440.907 505.079 445.116 507.535 450.376C507.878 451.1 508.221 451.824 508.575 452.57C512.923 463.374 512.043 475.476 507.934 486.18C506.205 489.961 504.292 493.193 501.672 496.418C501.111 497.124 500.549 497.83 499.971 498.557C492.915 506.926 483.363 512.634 472.359 513.998C459.557 515.069 448.836 513.119 438.466 504.979C428.862 496.535 422.057 486.31 421.035 473.338C420.682 459 424.475 447.679 434.37 437.224C439.199 432.541 444.328 428.651 450.584 426.099C451.635 425.649 451.635 425.649 452.707 425.19C456.829 424.103 460.786 424.15 465.031 424.163Z" fill="#47A5DE"/>
<path d="M189.278 428.611C189.947 428.974 190.617 429.338 191.306 429.713C201.786 436.052 209.786 445.977 212.728 457.91C215.411 471.579 212.543 483.881 205.191 495.581C200.147 502.48 194.386 506.879 186.765 510.65C186.184 510.941 185.602 511.232 185.002 511.532C175.566 515.905 162.8 515.119 153.203 511.702C142.433 507.075 134.511 500.057 128.977 489.721C128.337 488.567 128.337 488.567 127.685 487.39C123.049 477.538 122.985 464.285 126.098 453.934C131.93 439.89 141.857 431.142 155.529 425.099C166.361 422.456 179.509 423.1 189.278 428.611Z" fill="#FAB23D"/>
<path d="M365.994 280.438C366.823 280.715 367.652 280.991 368.506 281.276C363.808 285.972 359.109 290.668 354.268 295.507C353.439 295.231 352.61 294.954 351.756 294.67C356.454 289.973 361.153 285.277 365.994 280.438Z" fill="#64A044"/>
<path d="M616.411 436.982C616.964 436.982 617.517 436.982 618.086 436.982C618.177 438.585 618.242 440.19 618.296 441.795C618.335 442.689 618.373 443.582 618.414 444.503C618.086 447.027 618.086 447.027 614.736 450.376C615.289 445.956 615.842 441.536 616.411 436.982Z" fill="#266945"/>
<path d="M111.39 603.571C114.281 604.807 116.121 606.449 118.299 608.698C118.891 609.305 119.482 609.911 120.092 610.536C120.759 611.232 120.759 611.232 121.44 611.942C120.887 612.495 120.334 613.047 119.765 613.616C118.364 612.261 116.969 610.9 115.577 609.535C114.8 608.778 114.023 608.02 113.222 607.24C111.39 605.245 111.39 605.245 111.39 603.571Z" fill="#286B43"/>
<path d="M559.46 674.727C560.289 675.003 561.118 675.279 561.973 675.564C553.284 681.828 553.284 681.828 548.572 683.935C549.699 680.555 551.392 679.824 554.33 677.866C555.674 676.953 555.674 676.953 557.046 676.021C557.842 675.594 558.639 675.167 559.46 674.727Z" fill="#246C46"/>
<path d="M437.183 434.47C437.459 435.299 437.735 436.128 438.02 436.982C436.362 438.639 434.703 440.297 432.995 442.004C432.166 441.728 431.337 441.452 430.482 441.167C432.693 438.957 434.905 436.747 437.183 434.47Z" fill="#64A344"/>
<path d="M664.987 455.398C667.604 455.242 667.604 455.242 670.012 455.398C670.288 456.227 670.564 457.056 670.849 457.91C668.362 457.91 665.874 457.91 663.312 457.91C663.864 457.081 664.417 456.252 664.987 455.398Z" fill="#236A44"/>
</g>
<defs>
<clipPath id="clip0_74_150">
<rect width="701" height="735" fill="white"/>
</clipPath>
</defs>
</svg>
